<?xml version="1.0" standalone="no"?>
<!DOCTYPE svg PUBLIC "-//W3C//DTD SVG 20010904//EN"
 "http://www.w3.org/TR/2001/REC-SVG-20010904/DTD/svg10.dtd">
<svg version="1.0" xmlns="http://www.w3.org/2000/svg"
 width="512.000000pt" height="512.000000pt" viewBox="0 0 512.000000 512.000000"
 preserveAspectRatio="xMidYMid meet">

<g transform="translate(0.000000,512.000000) scale(0.100000,-0.100000)"
fill="#000000" stroke="none">
<path d="M2410 4802 l0 -317 -52 -25 c-68 -31 -167 -130 -198 -197 l-25 -53
-917 0 -918 0 0 -150 0 -150 185 0 c102 0 185 -3 185 -6 0 -3 -151 -368 -335
-810 -370 -888 -351 -829 -319 -982 61 -293 293 -525 586 -586 108 -22 487
-22 595 0 150 31 275 99 382 207 134 136 203 288 218 475 l5 77 -336 807
c-185 443 -336 809 -336 812 0 3 226 6 503 6 l502 0 25 -52 c31 -68 130 -167
198 -198 l52 -25 0 -1075 0 -1076 -52 -14 c-117 -29 -221 -91 -321 -188 -86
-84 -147 -182 -185 -295 -17 -49 -32 -91 -35 -94 -3 -3 -43 -18 -90 -33 -112
-38 -195 -88 -283 -172 -157 -150 -222 -301 -231 -545 l-6 -143 1353 0 1353 0
-6 143 c-9 243 -73 392 -234 549 -91 88 -229 165 -329 184 -41 8 -41 7 -77
114 -67 199 -226 371 -423 453 -32 14 -76 28 -97 32 l-37 7 0 1077 0 1076 53
25 c67 31 166 130 197 198 l25 52 502 0 c277 0 503 -3 503 -6 0 -3 -151 -368
-335 -810 -370 -888 -351 -829 -319 -982 61 -293 293 -525 586 -586 108 -22
487 -22 595 0 150 31 275 99 382 207 134 136 203 288 218 475 l5 77 -336 807
c-185 443 -336 809 -336 812 0 3 83 6 185 6 l185 0 0 150 0 150 -918 0 -917 0
-25 53 c-31 67 -130 166 -197 197 l-53 25 0 317 0 318 -150 0 -150 0 0 -318z
m220 -612 c45 -23 80 -80 80 -131 0 -74 -76 -149 -151 -149 -46 0 -108 39
-130 82 -37 72 -14 151 57 194 48 29 92 30 144 4z m-1473 -1138 c139 -334 255
-615 259 -624 6 -17 -23 -18 -516 -18 -493 0 -522 1 -516 18 24 67 512 1232
516 1232 3 0 119 -274 257 -608z m3320 0 c139 -334 255 -615 259 -624 6 -17
-23 -18 -516 -18 -493 0 -522 1 -516 18 24 67 512 1232 516 1232 3 0 119 -274
257 -608z m-3007 -948 c0 -25 -73 -134 -115 -172 -112 -102 -185 -122 -455
-122 -218 0 -267 7 -356 51 -86 44 -184 150 -208 227 l-7 22 570 0 c314 0 571
-3 571 -6z m3320 0 c0 -25 -73 -134 -115 -172 -112 -102 -185 -122 -455 -122
-218 0 -267 7 -356 51 -86 44 -184 150 -208 227 l-7 22 570 0 c314 0 571 -3
571 -6z m-2123 -918 c72 -19 138 -54 191 -101 45 -40 103 -121 116 -162 l7
-23 -421 0 -421 0 6 23 c13 42 67 117 116 161 110 99 268 139 406 102z m600
-600 c77 -21 136 -52 192 -102 49 -44 103 -119 116 -161 l6 -23 -1021 0 -1021
0 6 23 c23 74 123 183 210 226 99 49 99 49 800 50 535 1 670 -2 712 -13z"/>
</g>
</svg>
